<svg id="Layer_1" data-name="Layer 1" xmlns="http://www.w3.org/2000/svg" viewBox="0 0 172 50.33"><defs><style>.cls-1{fill:#fff;stroke:#231f20;}.cls-2{fill:#ee3124;}</style></defs><title>adobe-logo</title><rect width="172" height="50.33"/><path class="cls-1" d="M163.56,73.15,162,82.67h-5.76l7.19-39.62h7.06L177,82.67h-5.79l-1.53-9.52Zm5.58-5.58L167.94,59c-.34-2.47-.78-6.33-1.11-9h-.13c-.36,2.7-.84,6.67-1.21,9l-1.29,8.57Z" transform="translate(-92.4 -37.7)"/><path class="cls-1" d="M196,42V74.46c0,2.58.11,5.74.2,8.21h-5.11l-.33-3.3h-.12c-.85,2-2.72,3.78-4.95,3.78-4.89,0-7.31-6.52-7.31-14.75,0-10,3.61-14.9,7.56-14.9a4.2,4.2,0,0,1,4.07,3h.1V42Zm-5.91,23a11.66,11.66,0,0,0-.09-1.71c-.23-2-1.09-3.72-2.48-3.72-2.38,0-3.25,4.14-3.25,9,0,5.56,1.25,8.73,3.16,8.73.88,0,1.89-.55,2.45-2.88a7,7,0,0,0,.2-1.82Z" transform="translate(-92.4 -37.7)"/><path class="cls-1" d="M208.23,83.15c-5.45,0-8.87-5.3-8.87-14.75,0-10.32,4.39-14.91,9-14.91,5.37,0,8.75,5.54,8.75,14.74,0,11.82-5.28,14.91-8.83,14.91Zm.11-5.48c2.26,0,2.82-5.14,2.82-9.39,0-4-.56-9.31-2.91-9.31s-3,5.27-3,9.31c0,4.88.66,9.39,3.07,9.39Z" transform="translate(-92.4 -37.7)"/><path class="cls-1" d="M220.41,42h5.91V57h.1c1.16-2.21,2.72-3.48,5-3.48,4.46,0,6.69,6.12,6.69,14.12,0,10.11-3.34,15.54-7.66,15.54-2.07,0-3.44-1.11-4.67-3.91h-.12l-.33,3.44h-5.07c.09-2.39.2-5.64.2-8.21Zm5.91,30.42a7,7,0,0,0,.23,1.83c.59,2.41,1.6,3,2.4,3,2.28,0,3.21-3.5,3.21-9.1,0-5.09-1-8.6-3.24-8.6-1.12,0-2.06,1.47-2.39,3a9,9,0,0,0-.22,1.81Z" transform="translate(-92.4 -37.7)"/><path class="cls-1" d="M246.29,70.63c.07,5.19,2.33,6.88,5.13,6.88a10.56,10.56,0,0,0,4.43-1l.8,5.14a14.65,14.65,0,0,1-6.3,1.33c-6.35,0-9.81-5.24-9.81-14.18,0-9.6,4-15.36,9.27-15.36,5.07,0,7.88,5.09,7.88,13.42a31.41,31.41,0,0,1-.17,3.8Zm6-5.05c0-4-.94-6.86-2.82-6.86-2.14,0-3,3.79-3.12,6.86Z" transform="translate(-92.4 -37.7)"/><polygon class="cls-2" points="40.88 5 60.23 5 60.23 44.75 40.88 5"/><polygon class="cls-2" points="27.25 5 7.89 5 7.89 44.75 27.25 5"/><polygon class="cls-2" points="34.07 19.65 46.4 44.75 38.32 44.75 34.63 36.76 25.61 36.76 34.07 19.65"/></svg>