<svg id="Layer_1" data-name="Layer 1" xmlns="http://www.w3.org/2000/svg" viewBox="0 0 93.73 122.06"><defs><style>.cls-1{fill:#fff;}</style></defs><title>if</title><path class="cls-1" d="M68.37,106.79c0-6.63,0-7.48-4.59-10.54l-1.53-1c-.68-.68-.68-2.55.17-3.06a116.86,116.86,0,0,0,17.51-8.33,1.57,1.57,0,0,1,1.7,1C81.29,90.81,81,99,81,105.94v30.6c0,12.24.34,13.94,6.46,14.79l3.57.51c1.19.85.85,3.74-.34,4.25-5.1-.34-10-.51-16-.51-6.12,0-11.22.17-16,.51-1.19-.51-1.53-3.4-.34-4.25l3.57-.51c6.29-.85,6.46-2.55,6.46-14.79ZM82.48,58.34c0,6.12-4.25,8.84-9,8.84a8.35,8.35,0,0,1-8.67-8.5A8.84,8.84,0,0,1,74,49.5C79.08,49.5,82.48,53.58,82.48,58.34Z" transform="translate(-57.6 -34.03)"/><path class="cls-1" d="M114.27,95.74c-2.89,0-2.89.34-2.89,4.93v35.87c0,12.24.34,14.28,6.46,14.79l6.12.51c1.19.85.85,3.74-.34,4.25-7.65-.34-12.58-.51-18.53-.51-6.12,0-11.22.17-16.32.51-1.19-.51-1.53-3.4-.34-4.25l3.91-.51c6.29-.85,6.46-2.55,6.46-14.79V100.67c0-4.59,0-4.93-3.4-4.93H89.45a2.38,2.38,0,0,1-.51-3.23l7.31-3.57c1.36-.68,2.55-1.7,2.55-3.4,0-9.86,1.19-20.4,5.27-29.92C108.32,45.93,117.84,34,134.67,34c9,0,16.66,4.08,16.66,10.2,0,3.4-3.23,6.12-6.46,6.12a4.85,4.85,0,0,1-4.08-2c-3.23-3.74-8-7.48-13.6-7.48-5.27,0-9.52,3.23-12.07,9.35-3.06,7.82-3.74,20.23-3.74,28.73v4.93c0,4.59,0,4.76,2.89,4.76h19.38c1.87,1.7.68,6.46-1.19,7.14Z" transform="translate(-57.6 -34.03)"/></svg>